<svg version="1.1" id="Layer_1" xmlns="http://www.w3.org/2000/svg" xmlns:xlink="http://www.w3.org/1999/xlink" x="0px" y="0px"
	 width="100%" viewBox="0 0 1200 1200" enable-background="new 0 0 1200 1200" xml:space="preserve">

<path fill="#00df9a" opacity="1.000000" stroke="none" 
	d="
M433.725342,209.709015 
	C456.865234,199.885559 480.136292,191.705444 504.523438,186.956223 
	C515.276123,184.862198 525.921265,182.210175 536.684204,180.176788 
	C542.598999,179.059341 548.642090,178.296494 554.653381,178.072144 
	C577.317444,177.226273 599.995117,176.109085 622.661865,176.224686 
	C634.841309,176.286789 646.998718,178.754501 659.184387,179.949799 
	C677.904846,181.786118 696.207703,185.790161 714.184998,191.084549 
	C729.853760,195.699081 745.640808,200.283569 760.700928,206.512482 
	C788.080261,217.836700 814.651428,231.048996 838.973999,248.130035 
	C852.393860,257.554443 865.203064,267.913300 877.769348,278.467896 
	C887.870789,286.952240 897.519653,296.041504 906.796082,305.428894 
	C928.974121,327.872101 948.479614,352.631500 964.632935,379.631927 
	C980.215454,405.678223 994.143921,432.798065 1002.940369,462.078735 
	C1008.714722,481.299805 1014.301453,500.623047 1018.761353,520.176758 
	C1021.641174,532.802795 1022.140991,545.956482 1024.043945,558.823914 
	C1027.338379,581.101013 1026.353027,603.525879 1025.702637,625.833984 
	C1025.249634,641.375183 1022.088989,656.845642 1019.998169,672.328857 
	C1017.100708,693.785645 1011.678406,714.673828 1004.957153,735.200928 
	C996.331299,761.545105 984.414612,786.427368 971.126038,810.740417 
	C958.888855,833.129883 944.066162,853.701538 927.921326,873.270081 
	C917.524597,885.871521 906.017029,897.641724 894.272278,909.026184 
	C875.756470,926.974182 855.735168,943.263977 834.081055,957.264648 
	C804.968506,976.087769 774.118652,991.787354 741.198608,1002.759644 
	C721.875061,1009.200073 702.024658,1014.256409 682.144958,1018.760315 
	C669.512756,1021.622375 656.435608,1023.084167 643.480530,1023.831970 
	C621.344971,1025.109497 599.146240,1025.871216 576.978699,1025.776367 
	C565.633423,1025.727905 554.317871,1023.143616 542.954163,1022.075928 
	C519.842590,1019.904358 497.535065,1013.859375 475.282501,1007.813477 
	C463.569733,1004.631104 452.138428,1000.133911 440.946075,995.370361 
	C413.817322,983.824036 387.299286,970.930359 363.140381,953.885864 
	C349.609161,944.339417 336.669098,933.895996 323.960052,923.262329 
	C314.098083,915.010681 304.688019,906.153809 295.635925,897.012573 
	C273.315613,874.472717 253.721619,849.583740 237.418671,822.473450 
	C221.852737,796.588867 208.138107,769.529358 199.128464,740.524414 
	C193.130768,721.215942 187.718948,701.673523 183.238785,681.964417 
	C180.367996,669.335205 179.845871,656.186279 177.959747,643.315918 
	C174.695160,621.039612 175.980652,598.635254 176.212936,576.299988 
	C176.330963,564.947754 178.776199,553.630371 179.973114,542.276550 
	C182.487717,518.423279 188.285004,495.242584 195.148148,472.389374 
	C203.353470,445.067017 215.502426,419.300690 229.031036,394.236847 
	C240.107437,373.716125 253.029358,354.326477 268.112640,336.546814 
	C280.352020,322.119415 292.872742,307.844055 306.272614,294.510193 
	C322.471954,278.390686 340.381134,264.180786 359.048859,250.882843 
	C379.382233,236.398376 401.490326,225.210098 423.673645,214.076599 
	C426.819489,212.497711 430.166870,211.320358 433.725342,209.709015 
M965.040955,799.592102 
	C973.436768,781.189514 982.618347,763.097595 990.044312,744.311707 
	C1001.216431,716.048950 1008.768738,686.690369 1011.963196,656.373779 
	C1013.593323,640.903625 1015.238281,625.398193 1015.863342,609.867981 
	C1016.738647,588.119446 1015.526550,566.390015 1011.959290,544.877197 
	C1009.444946,529.714111 1007.476685,514.369690 1003.593872,499.543823 
	C996.310425,471.733459 987.058899,444.404541 973.736633,418.901489 
	C963.245178,398.817413 951.566040,379.183960 938.613708,360.605835 
	C927.078979,344.061096 913.424500,328.928680 900.025635,313.774109 
	C892.113403,304.825104 883.081909,296.819855 874.179016,288.806458 
	C866.539612,281.930115 858.796753,275.017334 850.337097,269.236633 
	C835.326904,258.979736 819.819397,249.438919 804.371887,239.836700 
	C785.721191,228.243378 765.641113,219.566040 745.090027,212.038040 
	C720.272156,202.947052 695.059875,195.160965 668.686096,191.939941 
	C651.696533,189.865005 634.727661,187.260223 617.668762,186.228790 
	C604.322205,185.421814 590.836975,186.388351 577.440674,187.089050 
	C566.665283,187.652695 555.857544,188.510925 545.195557,190.113068 
	C529.850891,192.418854 514.392151,194.612610 499.400085,198.476028 
	C472.175842,205.491638 445.672882,214.970474 420.418671,227.378998 
	C400.171509,237.327347 380.392822,248.301987 362.352234,262.009216 
	C348.639160,272.428406 334.688965,282.632874 321.814758,294.029205 
	C310.628326,303.931519 300.292755,314.930267 290.510559,326.247772 
	C279.465729,339.026031 268.775330,352.227570 259.159180,366.096710 
	C244.292999,387.537842 231.432724,410.215698 221.188553,434.319214 
	C209.150681,462.643066 199.631470,491.637482 193.735336,521.959595 
	C189.800613,542.194946 187.493256,562.541260 186.225006,582.985352 
	C185.376648,596.660828 186.387329,610.483276 187.089127,624.213257 
	C187.648376,635.154358 188.513290,646.126770 190.114227,656.956421 
	C192.361374,672.157410 194.429443,687.499573 198.339859,702.315247 
	C205.594360,729.801025 215.109695,756.609924 227.708160,782.166992 
	C237.903412,802.848938 249.094681,823.070801 263.132935,841.391724 
	C275.637207,857.710571 288.975128,873.429382 302.590363,888.843079 
	C310.277893,897.546082 319.069092,905.319641 327.730133,913.103577 
	C335.372131,919.971619 343.090820,926.905823 351.545105,932.685242 
	C366.553131,942.945068 382.053894,952.497742 397.513733,962.079590 
	C416.313171,973.731384 436.551483,982.388977 457.244751,990.045044 
	C485.898956,1000.646545 515.186096,1008.751709 545.649536,1011.967590 
	C560.955078,1013.583313 576.293213,1015.242188 591.657715,1015.863525 
	C613.573242,1016.749756 635.469177,1015.530212 657.148071,1011.955872 
	C672.312988,1009.455627 687.652649,1007.463562 702.479492,1003.583252 
	C730.291382,996.304565 757.617249,987.043701 783.122986,973.731506 
	C803.210571,963.247375 822.825562,951.538574 841.414856,938.598633 
	C857.832275,927.170654 872.860718,913.649780 887.886780,900.357056 
	C896.958435,892.331848 905.071167,883.173828 913.213623,874.162354 
	C919.993652,866.658813 926.835999,859.067383 932.506470,850.736023 
	C943.743774,834.225830 954.191162,817.177917 965.040955,799.592102 
z"/>
<path fill="#000000" opacity="1.000000" stroke="none" 
	d="
M965.002991,799.972168 
	C954.191162,817.177917 943.743774,834.225830 932.506470,850.736023 
	C926.835999,859.067383 919.993652,866.658813 913.213623,874.162354 
	C905.071167,883.173828 896.958435,892.331848 887.886780,900.357056 
	C872.860718,913.649780 857.832275,927.170654 841.414856,938.598633 
	C822.825562,951.538574 803.210571,963.247375 783.122986,973.731506 
	C757.617249,987.043701 730.291382,996.304565 702.479492,1003.583252 
	C687.652649,1007.463562 672.312988,1009.455627 657.148071,1011.955872 
	C635.469177,1015.530212 613.573242,1016.749756 591.657715,1015.863525 
	C576.293213,1015.242188 560.955078,1013.583313 545.649536,1011.967590 
	C515.186096,1008.751709 485.898956,1000.646545 457.244751,990.045044 
	C436.551483,982.388977 416.313171,973.731384 397.513733,962.079590 
	C382.053894,952.497742 366.553131,942.945068 351.545105,932.685242 
	C343.090820,926.905823 335.372131,919.971619 327.730133,913.103577 
	C319.069092,905.319641 310.277893,897.546082 302.590363,888.843079 
	C288.975128,873.429382 275.637207,857.710571 263.132935,841.391724 
	C249.094681,823.070801 237.903412,802.848938 227.708160,782.166992 
	C215.109695,756.609924 205.594360,729.801025 198.339859,702.315247 
	C194.429443,687.499573 192.361374,672.157410 190.114227,656.956421 
	C188.513290,646.126770 187.648376,635.154358 187.089127,624.213257 
	C186.387329,610.483276 185.376648,596.660828 186.225006,582.985352 
	C187.493256,562.541260 189.800613,542.194946 193.735336,521.959595 
	C199.631470,491.637482 209.150681,462.643066 221.188553,434.319214 
	C231.432724,410.215698 244.292999,387.537842 259.159180,366.096710 
	C268.775330,352.227570 279.465729,339.026031 290.510559,326.247772 
	C300.292755,314.930267 310.628326,303.931519 321.814758,294.029205 
	C334.688965,282.632874 348.639160,272.428406 362.352234,262.009216 
	C380.392822,248.301987 400.171509,237.327347 420.418671,227.378998 
	C445.672882,214.970474 472.175842,205.491638 499.400085,198.476028 
	C514.392151,194.612610 529.850891,192.418854 545.195557,190.113068 
	C555.857544,188.510925 566.665283,187.652695 577.440674,187.089050 
	C590.836975,186.388351 604.322205,185.421814 617.668762,186.228790 
	C634.727661,187.260223 651.696533,189.865005 668.686096,191.939941 
	C695.059875,195.160965 720.272156,202.947052 745.090027,212.038040 
	C765.641113,219.566040 785.721191,228.243378 804.371887,239.836700 
	C819.819397,249.438919 835.326904,258.979736 850.337097,269.236633 
	C858.796753,275.017334 866.539612,281.930115 874.179016,288.806458 
	C883.081909,296.819855 892.113403,304.825104 900.025635,313.774109 
	C913.424500,328.928680 927.078979,344.061096 938.613708,360.605835 
	C951.566040,379.183960 963.245178,398.817413 973.736633,418.901489 
	C987.058899,444.404541 996.310425,471.733459 1003.593872,499.543823 
	C1007.476685,514.369690 1009.444946,529.714111 1011.959290,544.877197 
	C1015.526550,566.390015 1016.738647,588.119446 1015.863342,609.867981 
	C1015.238281,625.398193 1013.593323,640.903625 1011.963196,656.373779 
	C1008.768738,686.690369 1001.216431,716.048950 990.044312,744.311707 
	C982.618347,763.097595 973.436768,781.189514 965.002991,799.972168 
M469.999786,410.772278 
	C469.999786,414.388885 469.999786,418.005524 469.999786,422.000000 
	C472.526917,422.000000 474.648041,422.000000 476.769196,422.000000 
	C488.709869,422.000000 500.650543,422.000000 512.653015,422.000000 
	C512.815613,421.171936 513.022400,420.702728 512.978394,420.258392 
	C511.646088,406.814545 516.353638,395.883972 525.892273,386.397003 
	C532.775574,379.550903 536.758240,370.686981 537.900757,361.074463 
	C540.727783,337.289185 526.112244,315.337341 503.041321,309.428589 
	C483.189148,304.344147 464.253571,312.712646 452.966431,328.328522 
	C440.073669,346.165833 442.863739,372.970123 458.780029,388.424011 
	C464.739166,394.209930 469.015198,401.267639 469.999786,410.772278 
M641.026855,503.267731 
	C646.623901,510.804932 652.812927,517.515015 661.934082,521.049133 
	C677.457458,527.063904 694.790771,524.432007 706.581909,512.661682 
	C716.470276,502.790802 721.578430,490.765381 719.118225,476.099915 
	C717.113342,464.148071 711.590698,455.170837 701.804565,447.823090 
	C684.955627,435.172272 659.852234,439.595856 646.860046,453.238129 
	C634.872070,465.825897 632.487427,488.950409 641.026855,503.267731 
M639.956665,659.813660 
	C639.265381,654.901367 638.574158,649.989014 637.872253,645.001160 
	C634.713257,645.001160 632.016235,644.727173 629.420410,645.120605 
	C628.183716,645.308044 626.286133,646.647705 626.146057,647.666016 
	C625.211060,654.462463 624.578186,661.305664 624.022644,668.147888 
	C623.265564,677.473511 622.716614,686.815796 621.975525,696.142822 
	C621.598633,700.885681 620.996765,705.610779 620.496582,710.343872 
	C619.992554,707.707642 620.263672,705.045654 619.948181,702.455200 
	C618.040100,686.790649 615.762268,671.167725 614.081787,655.480164 
	C612.919922,644.633972 613.260681,644.591675 602.317017,645.051758 
	C601.881042,645.070068 601.458374,645.407593 600.614624,645.779175 
	C601.408264,651.735596 602.318604,657.696350 602.974365,663.684937 
	C604.077332,673.758179 604.821350,683.873779 606.080078,693.926025 
	C607.511902,705.360596 609.509583,716.725159 610.882568,728.165588 
	C611.224792,731.017456 612.576416,731.951782 614.764648,731.924316 
	C618.172974,731.881409 621.572388,731.153748 624.981018,731.106995 
	C627.306519,731.075134 627.962402,730.428101 628.121155,728.043213 
	C628.499207,722.363098 629.394958,716.719421 629.987000,711.051086 
	C630.767944,703.574463 631.458374,696.088257 632.187744,688.606140 
	C633.653625,701.907166 634.741150,715.138428 636.133606,728.337524 
	C636.272888,729.657959 638.183533,731.725891 639.411377,731.831787 
	C644.168335,732.242004 648.981689,731.998657 653.820862,731.998657 
	C657.122864,702.828857 660.376770,674.084290 663.629028,645.353821 
	C659.451965,645.353821 655.244446,645.353821 650.951599,645.353821 
	C648.900208,666.964539 646.881348,688.232239 644.862488,709.500000 
	C643.987000,707.073425 644.175781,704.632507 643.955750,702.229004 
	C642.689636,688.396301 641.326660,674.572449 639.956665,659.813660 
M550.041565,794.280457 
	C548.260132,786.611389 546.547241,778.924805 544.607788,771.295898 
	C544.372925,770.372070 542.944702,769.150513 542.018555,769.104980 
	C537.427612,768.879333 532.819519,769.002197 529.000000,769.002197 
	C529.000000,780.790405 528.875793,792.014648 529.029968,803.234985 
	C529.243958,818.810242 529.667908,834.382568 529.999512,849.956177 
	C530.110657,855.173706 530.615845,855.398682 537.507751,855.043762 
	C541.786743,854.823486 542.140015,852.155518 542.001953,848.891907 
	C541.653503,840.654541 541.292053,832.417236 541.014099,824.177307 
	C540.835571,818.886108 540.875549,813.587219 540.669495,808.297485 
	C540.493225,803.772095 540.106323,799.254761 539.812622,794.733887 
	C540.945190,795.974609 540.881592,797.291077 541.195068,798.510681 
	C545.110352,813.740967 549.103394,828.951233 553.028503,844.179016 
	C555.851440,855.130310 555.819458,855.141785 567.300598,854.982544 
	C567.758057,854.976257 568.213135,854.795410 568.291626,854.778320 
	C568.291626,826.130859 568.291626,797.714600 568.291626,769.501465 
	C563.885193,769.501465 560.208252,769.501465 556.500244,769.501465 
	C556.500244,786.104736 556.500244,802.207458 556.500244,819.000122 
	C554.388672,810.546631 552.446716,802.772400 550.041565,794.280457 
M519.999939,796.280029 
	C520.332092,789.874817 521.088135,783.451782 520.820068,777.071777 
	C520.683167,773.811157 521.959961,768.675110 515.308533,768.921387 
	C505.824921,769.272583 507.054504,768.178833 507.001434,777.213562 
	C506.992645,778.712341 507.000183,780.211182 507.000183,781.710022 
	C507.000183,789.456604 507.000244,797.203247 507.000244,804.814209 
	C502.995209,804.814209 499.706787,804.814209 495.999939,804.814209 
	C495.999939,803.349487 495.999969,802.064270 495.999939,800.779053 
	C495.999908,791.952698 495.933716,783.125610 496.030731,774.300354 
	C496.072632,770.490356 494.840149,768.360474 490.628143,768.974731 
	C489.486664,769.141235 488.290802,769.096436 487.136414,768.981934 
	C483.663727,768.637634 483.050415,770.842285 483.016144,773.532410 
	C482.973877,776.852173 483.001160,780.172852 483.001099,783.493103 
	C483.000610,806.468445 482.948578,829.444214 483.148499,852.417847 
	C483.158966,853.621033 485.115906,855.272644 486.524780,855.867676 
	C487.938080,856.464661 489.823364,855.822021 491.460541,856.036987 
	C494.729156,856.465942 495.885468,854.746765 495.980774,851.895325 
	C496.064178,849.400024 495.999664,846.899841 495.999725,844.401794 
	C495.999939,835.315125 495.999847,826.228516 495.999847,817.325073 
	C500.380310,817.325073 504.118195,817.325073 507.000397,817.325073 
	C507.000397,828.511108 507.114227,839.370728 506.943970,850.225952 
	C506.876434,854.530762 508.593964,856.363525 512.828247,856.014099 
	C513.986145,855.918579 515.164673,855.922058 516.323059,856.014526 
	C519.203979,856.244568 519.992310,854.828491 520.048950,852.126831 
	C520.256836,842.214844 520.901550,832.307556 520.924500,822.397461 
	C520.943970,813.989014 520.332336,805.578979 519.999939,796.280029 
M488.250549,653.187622 
	C487.833771,655.739380 487.070557,658.289185 487.055817,660.843262 
	C486.951385,678.963684 486.787750,697.089539 487.174927,715.202332 
	C487.254822,718.938782 488.778046,723.214111 491.009064,726.223022 
	C496.667542,733.854309 505.160675,732.808228 513.026184,731.200745 
	C516.041992,730.584412 519.399353,727.879517 521.029968,725.178040 
	C523.167053,721.637573 524.794128,717.164429 524.817749,713.081909 
	C524.916504,696.012329 524.427612,678.936157 523.964050,661.867615 
	C523.690674,651.804077 520.205444,647.351257 511.040558,644.495483 
	C502.572021,641.856689 493.076080,645.342712 488.250549,653.187622 
M613.999695,826.241455 
	C613.999695,821.411438 613.999756,816.581421 613.999695,811.751404 
	C613.999573,803.778992 614.455078,795.773743 613.883362,787.842529 
	C613.180054,778.086182 611.756348,770.082764 599.590576,768.351135 
	C586.989258,766.557556 577.947021,769.487061 577.055908,784.421753 
	C576.711182,790.198669 577.122620,796.016785 576.957275,801.809448 
	C576.788513,807.720642 576.044189,813.625366 576.077148,819.529907 
	C576.120361,827.270630 576.179443,835.074402 577.190918,842.724182 
	C577.860046,847.784973 580.478455,852.713989 585.951111,854.312927 
	C589.932617,855.476379 594.244507,855.822388 598.424377,855.928040 
	C606.956299,856.143555 613.406799,850.117554 613.946350,841.514648 
	C614.245117,836.751709 613.999817,831.954651 613.999695,826.241455 
M663.471741,849.981934 
	C664.971008,851.322083 666.285461,853.446289 668.005127,853.851746 
	C672.688965,854.956116 677.525818,855.653259 682.335388,855.928467 
	C690.483765,856.394714 696.448242,849.171387 696.879333,842.086304 
	C697.391602,833.666382 696.999695,825.191406 696.999634,816.740295 
	C696.999573,807.096130 697.471802,797.422363 696.868225,787.816101 
	C696.250122,777.977661 694.722595,770.067261 682.548767,768.340576 
	C670.172180,766.585144 660.896545,769.348206 660.059570,784.486877 
	C659.703003,790.935059 660.000122,797.419312 660.000183,803.887207 
	C660.000305,815.708435 659.787292,827.536011 660.134949,839.346985 
	C660.234314,842.723755 661.958313,846.052734 663.471741,849.981934 
M721.448242,843.996643 
	C720.298767,842.286804 718.173523,840.590210 718.150085,838.865112 
	C717.906250,820.880493 718.021606,802.891296 717.978577,784.903503 
	C717.971497,781.933533 719.122131,780.215332 722.198486,779.995667 
	C725.117676,779.787231 727.464966,780.349182 728.022522,783.801270 
	C728.199646,784.898315 728.812134,785.931824 728.942688,787.028137 
	C729.203552,789.218018 728.300964,792.049988 732.057373,791.991272 
	C734.541870,791.952393 737.044861,791.995239 739.495178,791.668518 
	C740.083740,791.590088 740.853577,790.222961 740.933411,789.390320 
	C741.643066,781.989441 740.161682,774.998230 733.871948,770.584961 
	C727.870728,766.374023 720.686218,766.690186 714.186951,769.476257 
	C707.808472,772.210510 705.016418,777.889343 705.007874,784.808228 
	C704.985352,802.962769 704.988464,821.117249 705.025574,839.271729 
	C705.028137,840.546875 705.260010,841.858582 705.608887,843.089905 
	C708.008850,851.560425 713.055176,855.922852 722.445496,856.223938 
	C731.364929,856.510010 739.119141,853.469299 740.214294,844.982056 
	C741.831604,832.448242 741.544861,819.662354 741.853638,806.978577 
	C741.877136,806.010132 740.235229,804.190735 739.297668,804.143188 
	C733.890808,803.869263 728.463013,804.009583 723.087219,804.009583 
	C722.836975,815.204224 722.836975,815.204224 729.000061,816.763367 
	C729.000061,823.883118 729.085022,831.038025 728.970764,838.189697 
	C728.892090,843.115723 726.458923,845.106445 721.448242,843.996643 
M555.487305,567.003540 
	C565.804199,568.424011 576.121094,569.844482 586.634033,571.291931 
	C587.603210,575.341736 588.611267,580.379089 590.086365,585.275818 
	C590.612488,587.022278 592.184021,589.614441 593.432251,589.705139 
	C595.213135,589.834656 597.835815,588.490906 598.878357,586.950378 
	C603.833496,579.628723 607.956360,571.714844 613.227356,564.647156 
	C616.179993,560.688049 614.828796,558.513550 611.898865,556.515686 
	C604.446350,551.433838 596.832153,546.583191 589.189636,541.788208 
	C585.008789,539.165161 581.674133,541.076416 582.089722,546.051025 
	C582.503052,550.999207 583.644470,555.886475 584.606445,561.635742 
	C576.608276,560.908875 568.627136,560.908691 560.967834,559.338623 
	C544.298767,555.921509 530.477966,547.192749 519.707825,534.056519 
	C515.637573,529.092041 511.855560,523.640686 509.181030,517.840088 
	C504.996185,508.763916 501.983490,499.204895 501.904083,488.947021 
	C501.884338,486.391968 500.955719,483.668427 497.227570,483.979431 
	C493.786469,484.266541 492.662598,486.317322 493.028107,489.371185 
	C493.587982,494.049744 494.164124,498.737823 495.031097,503.366058 
	C497.641205,517.300049 503.824677,529.751709 513.026978,540.269958 
	C524.205505,553.046997 537.809021,562.703491 555.487305,567.003540 
M619.431641,305.000183 
	C614.781433,305.000183 610.131287,305.000183 605.354431,305.000183 
	C604.203918,300.289459 603.292603,295.724365 601.923218,291.301117 
	C601.232910,289.071533 600.197998,286.052582 598.457764,285.243896 
	C595.486572,283.863342 593.555054,286.594391 591.969849,289.070923 
	C587.710754,295.724976 583.322205,302.295990 579.014893,308.919434 
	C575.755615,313.931213 576.313232,316.615356 581.455872,319.831024 
	C588.128113,324.003113 594.793518,328.200806 601.647583,332.057587 
	C603.483887,333.090851 607.257141,333.935638 607.931152,333.094971 
	C609.281921,331.410248 609.693054,328.437927 609.435669,326.114075 
	C608.963745,321.853027 607.726196,317.676758 606.801025,313.433685 
	C620.959900,311.772736 637.511963,315.638885 651.822388,324.017303 
	C675.498413,337.879150 687.529114,359.008759 689.933044,385.950256 
	C690.245483,389.452515 691.515625,391.353912 695.045593,390.951050 
	C698.701721,390.533783 699.072693,387.636475 698.932556,384.741608 
	C698.864258,383.330750 698.143250,381.957550 698.027954,380.542023 
	C696.862000,366.227448 691.667786,353.295197 683.847107,341.498322 
	C676.558044,330.503387 667.046936,321.812592 655.217773,315.523560 
	C644.229004,309.681274 632.962952,305.359314 619.431641,305.000183 
M478.999512,670.405273 
	C479.729523,663.083496 480.475189,655.763245 481.170502,648.438171 
	C481.261749,647.476746 481.171448,645.651184 481.036438,645.638916 
	C477.632477,645.328674 474.146820,644.801086 470.836151,645.325500 
	C469.953735,645.465332 469.461914,648.900513 469.048767,650.876587 
	C468.781464,652.155090 469.116852,653.548096 468.953461,654.861389 
	C467.329590,667.913574 465.683441,680.963135 463.988159,694.006287 
	C463.251373,699.674866 462.385864,705.326782 461.578766,710.986267 
	C461.369965,710.963074 461.161163,710.939880 460.952362,710.916687 
	C457.929138,689.009705 454.905914,667.102722 451.892059,645.263672 
	C447.711639,645.263672 443.956177,645.263672 439.781769,645.263672 
	C441.222931,656.357788 442.521973,667.156799 444.049011,677.923462 
	C446.280884,693.659363 448.587433,709.386292 451.108643,725.077515 
	C451.443970,727.164795 453.173615,730.664246 454.341675,730.699158 
	C459.484100,730.853027 464.659027,729.991028 469.810150,729.393311 
	C469.946106,729.377502 469.906921,728.167847 470.012024,727.525269 
	C472.002228,715.356567 474.027588,703.193542 475.989410,691.020264 
	C477.046661,684.460022 477.998596,677.882874 478.999512,670.405273 
M825.039062,800.342041 
	C823.242981,796.269043 820.902161,792.325439 819.890259,788.066101 
	C819.414307,786.062439 821.099670,783.146912 822.574890,781.239746 
	C823.357727,780.227783 826.604980,779.652222 827.307617,780.340820 
	C828.989563,781.989563 830.615234,784.422729 830.844910,786.683411 
	C831.426147,792.403564 831.190308,792.268127 840.187012,792.081604 
	C845.395874,791.973633 844.049927,788.416992 843.893127,785.783386 
	C843.744446,783.285950 842.952515,780.752258 842.044373,778.387756 
	C838.634888,769.511108 831.297913,768.630432 823.089966,768.925049 
	C813.825073,769.257568 805.564148,778.338928 807.061218,787.548645 
	C808.476013,796.252502 812.558105,803.806396 817.450928,811.127075 
	C822.599243,818.829956 827.176697,826.948669 831.516235,835.143738 
	C833.775146,839.409668 830.665283,844.766663 826.585693,844.838440 
	C822.942383,844.902588 819.848511,841.112000 820.079468,836.098389 
	C820.258118,832.219971 819.127502,830.425720 815.049133,830.964966 
	C813.412720,831.181274 811.674072,830.758789 810.076233,831.086426 
	C808.978271,831.311646 807.472961,832.113953 807.129395,833.026978 
	C805.290405,837.914185 809.449158,848.613892 813.552490,852.316956 
	C818.764709,857.020874 824.866882,856.081726 830.835449,855.918518 
	C835.189514,855.799500 837.288574,852.696106 839.898865,849.255432 
	C843.957703,843.905457 844.714355,838.653198 843.221680,832.731018 
	C840.159607,820.581848 832.299866,811.043823 825.039062,800.342041 
M716.051208,646.001648 
	C712.325500,645.667847 708.603210,645.100342 704.873474,645.046631 
	C695.756104,644.915222 686.954956,654.860718 689.205261,663.721313 
	C690.952454,670.601013 693.946533,677.304504 697.293396,683.604431 
	C702.242798,692.920776 708.259277,701.670593 713.199341,710.991333 
	C714.263977,713.000122 713.342529,716.797302 712.046936,719.018860 
	C711.372803,720.174988 707.131653,720.687256 705.848572,719.714294 
	C703.939575,718.266724 702.137878,715.206726 702.221680,712.903137 
	C702.405823,707.841431 700.478516,706.333862 695.854492,706.973022 
	C694.547607,707.153687 693.059875,706.653748 691.901550,707.102356 
	C690.772705,707.539490 689.231567,708.712097 689.124512,709.697937 
	C688.385803,716.499634 690.380127,727.606018 699.922180,730.782715 
	C704.269714,732.230164 709.337036,732.131775 714.008606,731.789185 
	C717.569946,731.528015 719.366638,728.339355 721.684143,725.480652 
	C726.209229,719.898865 727.236633,714.133911 724.867249,708.189514 
	C721.864990,700.657654 717.683960,693.584717 713.859619,686.394470 
	C709.896973,678.944336 705.464111,671.724426 701.923889,664.085510 
	C701.187927,662.497375 703.012329,659.135925 704.526611,657.315186 
	C705.412476,656.250061 708.765747,655.743225 709.688599,656.531372 
	C711.323059,657.927185 712.886597,660.536804 712.809753,662.575500 
	C712.637756,667.141968 714.348450,668.609131 718.605896,668.027222 
	C719.913269,667.848572 721.449463,668.400024 722.550110,667.895508 
	C723.882874,667.284546 725.839783,665.910095 725.842102,664.862244 
	C725.858948,657.292480 724.321289,650.279785 716.051208,646.001648 
M451.999695,785.808167 
	C453.650909,783.881775 454.990112,781.321472 457.082550,780.291748 
	C458.158356,779.762390 461.139587,781.554382 462.223022,783.048950 
	C463.210114,784.410706 463.068787,786.806274 462.939636,788.713318 
	C462.717316,791.996643 463.978333,793.338074 467.249451,793.026733 
	C468.900177,792.869629 470.585144,792.902344 472.242340,793.020874 
	C475.063690,793.222656 475.930084,791.956421 476.057343,789.203857 
	C476.667084,776.016052 470.140167,769.138000 457.019135,768.960938 
	C444.087921,768.786499 439.745880,775.436523 439.254364,785.390564 
	C438.360046,803.502441 438.792480,821.693787 439.111755,839.844177 
	C439.225159,846.291138 442.117584,852.155334 448.439728,854.638611 
	C454.570892,857.046753 461.101532,857.265320 467.360931,854.130676 
	C472.751038,851.431458 474.135773,846.466614 475.443695,841.178467 
	C477.632812,832.327576 476.711853,830.898804 467.899200,830.999695 
	C467.566101,831.003479 467.229187,831.032959 466.900360,830.995300 
	C463.734039,830.632507 462.724060,832.248413 462.983246,835.149719 
	C463.086578,836.306396 463.165771,837.509399 462.966492,838.640320 
	C462.481873,841.390381 461.845703,844.023071 458.121643,844.031189 
	C454.871033,844.038208 451.994690,843.822510 451.995850,839.516724 
	C451.996735,836.211792 451.939575,832.906860 451.942383,829.601929 
	C451.954590,815.296265 451.979370,800.990540 451.999695,785.808167 
M427.611237,815.048279 
	C428.074188,812.851379 428.624237,810.668396 428.980286,808.454346 
	C429.552338,804.896851 427.839050,803.705933 424.412689,803.953369 
	C421.338440,804.175354 418.235474,804.000061 415.311096,804.000061 
	C415.311096,795.631226 415.311096,787.901001 415.311096,779.999023 
	C420.264038,779.999023 424.909454,779.903381 429.548615,780.032837 
	C432.633453,780.118896 433.379669,778.373962 432.947601,775.917114 
	C432.521637,773.494995 434.861938,769.335327 430.363220,769.136108 
	C420.973755,768.720398 411.552979,769.010254 402.000732,769.010254 
	C402.000732,785.926392 401.880157,802.203857 402.043396,818.478394 
	C402.151123,829.218628 402.780609,839.953186 402.930786,850.693726 
	C402.975739,853.909180 403.932953,855.232666 407.238556,855.036438 
	C414.801514,854.587341 422.377319,854.060608 429.945465,854.095398 
	C435.015015,854.118774 433.851074,850.850586 434.010132,848.020325 
	C434.174072,845.104248 434.062012,842.724304 429.976868,842.939026 
	C425.066162,843.197205 420.131592,843.000122 415.281616,843.000122 
	C415.281616,833.681824 415.281616,824.950867 415.281616,816.212158 
	C419.343506,816.009216 423.125458,815.820251 427.611237,815.048279 
M733.000000,669.498413 
	C733.000061,677.646606 732.874878,685.797241 733.030884,693.942444 
	C733.240112,704.865173 733.780334,715.782104 733.930237,726.705017 
	C733.974670,729.942749 734.967651,731.231140 738.260498,731.036194 
	C745.834534,730.587769 753.420593,730.071899 761.000488,730.091003 
	C766.124878,730.103882 764.798767,726.735229 765.008667,723.952759 
	C765.235229,720.948853 764.906311,718.722412 760.897583,718.937256 
	C755.989624,719.200378 751.056824,719.000061 746.329346,719.000061 
	C746.329346,709.599243 746.329346,700.856750 746.329346,691.996582 
	C748.482483,691.996582 750.306702,691.996704 752.130920,691.996521 
	C760.209045,691.995544 760.380798,691.696594 760.062378,683.702087 
	C759.949280,680.862305 758.890259,679.853027 756.150024,679.967834 
	C752.875061,680.105042 749.589905,680.000244 746.244751,680.000244 
	C746.244751,671.785645 746.244751,664.049194 746.244751,655.998291 
	C751.282532,655.998291 756.081970,655.975159 760.881042,656.005676 
	C764.616028,656.029480 764.132751,653.311340 763.945496,651.071777 
	C763.751831,648.755981 765.437134,645.119446 761.015198,645.047546 
	C751.753357,644.896790 742.487427,645.001892 733.000000,645.001892 
	C733.000000,653.215271 733.000000,660.857178 733.000000,669.498413 
M772.000000,819.500488 
	C772.000000,829.833618 772.120728,840.168884 771.933228,850.498596 
	C771.869263,854.017883 773.036377,855.150330 776.535767,855.067505 
	C785.226685,854.861877 793.925781,854.999878 802.790161,854.999878 
	C802.790161,850.200012 802.790161,846.790100 802.790161,842.981995 
	C796.835999,842.981995 791.076233,842.981995 784.666931,842.981995 
	C784.666931,833.903076 784.666931,825.211731 784.666931,815.996216 
	C787.554749,815.996216 791.102539,816.495178 794.395264,815.794861 
	C796.157043,815.420105 798.582153,813.127258 798.808777,811.444336 
	C799.789856,804.157959 799.418823,804.000793 791.936462,804.000061 
	C790.269836,803.999878 788.511292,804.324768 786.967163,803.889404 
	C785.835876,803.570496 784.170105,802.279724 784.140259,801.376038 
	C783.906738,794.294922 784.010925,787.202637 784.010925,779.725525 
	C790.418518,779.725525 796.169922,779.725525 801.647827,779.725525 
	C801.647827,775.906738 801.647827,772.500488 801.647827,769.000061 
	C792.969666,769.000061 784.636292,769.202454 776.319946,768.914368 
	C772.182251,768.770996 770.757812,769.967590 770.917053,774.243347 
	C771.466309,788.988831 771.666687,803.747314 772.000000,819.500488 
M573.999939,714.433533 
	C574.109619,717.572571 574.102966,720.720825 574.351990,723.848755 
	C574.973328,731.653564 575.034912,731.785706 583.475037,730.854065 
	C584.758972,730.712341 585.834900,728.643921 586.988159,727.448486 
	C587.071411,727.362122 586.999695,727.126038 586.999695,726.959534 
	C586.999756,705.327759 586.981628,683.695862 587.023621,662.064209 
	C587.028625,659.499573 584.633362,655.748901 590.427734,655.921021 
	C599.932434,656.203308 598.952209,657.397461 598.984436,647.041077 
	C598.986328,646.433472 598.813171,645.825317 598.688782,645.000732 
	C587.156189,645.000732 575.858032,644.911072 564.565979,645.131531 
	C563.360107,645.155029 561.133423,647.063171 561.197327,647.968872 
	C561.401978,650.868042 561.592773,655.047546 563.412537,656.226440 
	C565.635681,657.666504 569.502502,656.569214 574.000000,656.569214 
	C574.000000,675.412964 574.000000,694.432800 573.999939,714.433533 
M636.000000,795.510254 
	C635.658081,786.726868 635.316101,777.943481 634.979553,769.298828 
	C630.680237,769.298828 626.939087,769.298828 623.257202,769.298828 
	C623.257202,798.316711 623.257202,827.035095 623.257202,855.999939 
	C632.308777,855.999939 641.110291,855.828003 649.899780,856.078979 
	C653.769592,856.189575 655.306030,855.151489 655.098450,851.055908 
	C654.896973,847.080688 654.940430,843.665161 649.462158,843.956055 
	C645.048645,844.190491 640.612732,844.003601 636.000000,844.003601 
	C636.000000,827.769226 636.000000,812.137939 636.000000,795.510254 
M542.531738,732.000000 
	C548.359192,732.000000 554.199097,731.767517 560.009766,732.079773 
	C564.039673,732.296326 565.308411,730.885742 565.085510,726.943787 
	C564.875916,723.238098 565.094727,719.806763 559.850586,719.973328 
	C555.273499,720.118652 550.688171,720.003601 545.437073,720.003601 
	C545.437073,694.678467 545.437073,670.036987 545.437073,645.341187 
	C540.870056,645.341187 536.997253,645.341187 533.299805,645.341187 
	C533.299805,674.401917 533.299805,703.120789 533.299805,732.000000 
	C536.245117,732.000000 538.893311,732.000000 542.531738,732.000000 
M384.045380,843.323242 
	C384.030212,840.693604 384.002228,838.064026 384.001892,835.434387 
	C383.999573,818.603394 384.003326,801.772461 384.005035,784.941467 
	C384.005188,783.345581 384.005066,781.749756 384.005066,780.190186 
	C397.270996,779.566528 397.622528,779.204712 395.288513,769.000061 
	C386.500580,769.000061 377.677795,768.898193 368.858307,769.025940 
	C357.987915,769.183350 358.963470,766.663940 359.070221,779.194946 
	C359.072266,779.437256 359.470337,779.676147 360.028717,780.305664 
	C363.768250,780.305664 367.846924,780.305664 372.222809,780.305664 
	C371.801056,788.421509 371.074768,796.129822 371.080292,803.837585 
	C371.087585,814.052734 371.728729,824.265930 371.975677,834.482971 
	C372.112335,840.136780 372.093781,845.798767 371.962982,851.452881 
	C371.893341,854.461426 373.625031,855.774048 375.946411,854.864746 
	C378.960205,853.684143 383.519958,856.157532 384.990875,851.252869 
	C385.036743,851.099976 385.006165,850.920593 384.994781,850.754761 
	C384.839661,848.497864 384.681702,846.241211 384.045380,843.323242 
M762.999512,789.520325 
	C763.000061,786.355103 763.087402,783.187073 762.985596,780.025146 
	C762.619690,768.657654 762.595459,768.655151 750.984253,769.056213 
	C750.716858,769.065369 750.459900,769.379395 749.884094,769.757263 
	C749.884094,798.350891 749.884094,827.140381 749.884094,855.924377 
	C753.093750,855.924377 755.444214,855.751099 757.758057,855.968323 
	C760.646545,856.239380 762.001343,855.449463 762.054443,852.246094 
	C762.248962,840.496216 762.760437,828.751709 762.968567,817.001953 
	C763.124939,808.175293 762.999451,799.343689 762.999512,789.520325 
M681.000061,721.547546 
	C681.333374,717.800720 681.935669,714.055237 681.954834,710.306763 
	C682.052612,691.158203 681.999939,672.008911 681.999939,652.859863 
	C681.999939,644.888550 681.999878,644.888550 673.818115,644.999695 
	C673.651611,645.001953 673.482910,645.017822 673.318909,644.997498 
	C670.102844,644.597656 668.725159,645.914368 668.965942,649.232483 
	C669.302246,653.865417 669.594971,658.516785 669.567993,663.158325 
	C669.442566,684.740845 669.155640,706.322571 669.107056,727.905029 
	C669.104004,729.262695 670.396362,731.548523 671.494141,731.834045 
	C678.955750,733.775574 680.999756,732.065552 681.000000,724.504333 
	C681.000000,723.838257 681.000000,723.172241 681.000061,721.547546 
M475.746582,445.001251 
	C474.833130,445.577423 473.279572,446.007660 473.109558,446.753326 
	C471.957611,451.805878 475.508209,455.890839 481.065033,455.977203 
	C487.387268,456.075500 493.712158,456.003296 500.035919,455.999084 
	C507.989136,455.993805 510.538177,453.135895 509.527374,445.001007 
	C498.614044,445.001007 487.657501,445.001007 475.746582,445.001251 
M500.465118,438.000000 
	C503.575073,438.000000 506.685028,438.000000 509.719055,438.000000 
	C509.719055,434.705200 509.719055,431.970337 509.719055,429.276062 
	C497.365051,429.276062 485.293915,429.276062 473.282867,429.276062 
	C473.282867,432.296082 473.282867,435.032501 473.282867,438.000000 
	C482.200958,438.000000 490.838501,438.000000 500.465118,438.000000 
M706.004456,402.477661 
	C702.066223,401.204559 700.219849,403.784393 699.126282,406.713623 
	C696.785034,412.984924 694.932495,419.437927 692.623596,425.722382 
	C691.477417,428.842194 692.039734,431.019623 694.981934,432.475922 
	C698.315369,434.125854 699.956055,431.618958 700.841125,429.340302 
	C703.440063,422.648712 705.826416,415.854828 707.828613,408.965179 
	C708.324219,407.259888 707.046570,405.039276 706.004456,402.477661 
M659.498108,547.000549 
	C660.427429,544.102112 661.265198,541.170166 662.311707,538.314697 
	C663.366150,535.437378 663.951294,532.817200 660.134827,531.631287 
	C656.609558,530.536011 655.150024,533.028137 654.203430,535.575439 
	C651.808350,542.020264 649.699219,548.570862 647.418823,555.059143 
	C646.414978,557.915344 646.710754,561.011719 649.620361,561.582275 
	C651.433533,561.937805 654.695801,559.982910 655.717041,558.169250 
	C657.478027,555.041626 657.999512,551.216003 659.498108,547.000549 
M730.821777,497.001678 
	C729.549072,498.416382 726.981323,500.253082 727.275940,501.157074 
	C727.870911,502.982849 729.751038,504.986237 731.578003,505.705688 
	C737.802307,508.156830 744.341003,509.816742 750.539856,512.322449 
	C753.524048,513.528687 755.570740,512.973267 756.679077,510.501282 
	C757.865723,507.854584 757.073975,505.083069 754.023315,504.058167 
	C746.613037,501.568573 739.116455,499.336182 730.821777,497.001678 
M606.030396,452.539703 
	C605.588989,452.362579 605.142517,452.196991 604.706970,452.006500 
	C601.820129,450.743530 599.358154,451.028687 598.312561,454.351959 
	C597.232178,457.785706 598.940735,459.173950 602.299377,460.151123 
	C609.025757,462.108063 615.646301,464.503906 622.149658,467.118774 
	C625.156189,468.327667 627.388000,467.405457 627.728455,464.914001 
	C627.974548,463.112701 626.385620,459.899719 624.797485,459.216370 
	C618.956787,456.703064 612.775085,454.982147 606.030396,452.539703 
M698.000732,533.515320 
	C700.257324,538.430298 702.284302,543.474792 704.930847,548.169922 
	C705.598206,549.353760 708.673462,550.330322 709.876404,549.766968 
	C711.333679,549.084534 713.206360,546.159729 712.763489,545.086304 
	C710.761536,540.233521 708.406067,535.411072 705.401794,531.121277 
	C702.687927,527.246033 700.480469,527.947998 698.000732,533.515320 
M725.288269,455.183502 
	C724.758301,461.598358 726.686340,463.231567 732.393860,460.819855 
	C736.094604,459.256134 739.480225,456.931122 743.206421,455.448120 
	C746.375061,454.187042 746.851868,451.640900 745.595215,449.619324 
	C744.675720,448.140228 741.356934,446.673920 739.941284,447.250122 
	C735.058838,449.237244 730.542175,452.122772 725.288269,455.183502 
M625.559021,503.000031 
	C621.020691,505.002930 616.314148,506.712921 612.035767,509.168610 
	C610.552368,510.020050 610.130371,512.720764 609.223572,514.576843 
	C611.372375,515.295776 613.830811,517.055176 615.608215,516.526245 
	C619.858826,515.261108 623.942139,513.174805 627.771545,510.882965 
	C629.278015,509.981415 630.621948,507.675537 630.689148,505.956390 
	C630.725403,505.028534 627.910583,503.989227 625.559021,503.000031 
M648.427063,431.938538 
	C650.295288,433.680023 651.918762,436.520508 655.028259,434.400085 
	C658.194885,432.240692 657.230347,429.314636 655.838379,426.536163 
	C653.756592,422.380402 651.624878,418.249634 649.546509,414.171204 
	C641.571411,413.816376 640.658081,415.190186 643.982117,422.040771 
	C645.448730,425.063416 646.688904,428.196045 648.427063,431.938538 
z"/>
<path fill="#00df9a" opacity="1.000000" stroke="none" 
	d="
M469.999695,410.311584 
	C469.015198,401.267639 464.739166,394.209930 458.780029,388.424011 
	C442.863739,372.970123 440.073669,346.165833 452.966431,328.328522 
	C464.253571,312.712646 483.189148,304.344147 503.041321,309.428589 
	C526.112244,315.337341 540.727783,337.289185 537.900757,361.074463 
	C536.758240,370.686981 532.775574,379.550903 525.892273,386.397003 
	C516.353638,395.883972 511.646088,406.814545 512.978394,420.258392 
	C513.022400,420.702728 512.815613,421.171936 512.653015,422.000000 
	C500.650543,422.000000 488.709869,422.000000 476.769196,422.000000 
	C474.648041,422.000000 472.526917,422.000000 469.999786,422.000000 
	C469.999786,418.005524 469.999786,414.388885 469.999695,410.311584 
M483.999908,382.690186 
	C484.000031,391.346863 484.203491,400.010315 483.916443,408.657471 
	C483.767700,413.137909 485.139679,414.938568 489.853607,413.670776 
	C492.535675,407.483673 495.240509,401.146759 498.023926,394.844543 
	C502.948273,383.694946 507.997894,372.599976 512.837036,361.413757 
	C514.968567,356.486633 513.106201,354.087585 507.440796,354.006805 
	C504.682648,353.967468 501.923492,354.000000 499.000000,354.000000 
	C499.000000,344.406708 498.845825,335.430054 499.078247,326.463409 
	C499.167297,323.026733 498.477783,320.697723 494.324158,319.957977 
	C493.352173,321.360077 491.965332,322.802734 491.219269,324.523254 
	C484.086121,340.973022 477.080017,357.477783 469.991364,373.946960 
	C468.367981,377.718597 469.564667,379.820587 473.720886,379.980957 
	C476.380554,380.083618 479.057770,379.870728 481.704620,380.081543 
	C482.506836,380.145416 483.233948,381.152191 483.999908,382.690186 
z"/>
<path fill="#F7F3E8" opacity="1.000000" stroke="none" 
	d="
M640.989197,502.889771 
	C632.487427,488.950409 634.872070,465.825897 646.860046,453.238129 
	C659.852234,439.595856 684.955627,435.172272 701.804565,447.823090 
	C711.590698,455.170837 717.113342,464.148071 719.118225,476.099915 
	C721.578430,490.765381 716.470276,502.790802 706.581909,512.661682 
	C694.790771,524.432007 677.457458,527.063904 661.934082,521.049133 
	C652.812927,517.515015 646.623901,510.804932 640.989197,502.889771 
z"/>
<path fill="#F7F3E8" opacity="1.000000" stroke="none" 
	d="
M639.976562,660.279663 
	C641.326660,674.572449 642.689636,688.396301 643.955750,702.229004 
	C644.175781,704.632507 643.987000,707.073425 644.862488,709.500000 
	C646.881348,688.232239 648.900208,666.964539 650.951599,645.353821 
	C655.244446,645.353821 659.451965,645.353821 663.629028,645.353821 
	C660.376770,674.084290 657.122864,702.828857 653.820862,731.998657 
	C648.981689,731.998657 644.168335,732.242004 639.411377,731.831787 
	C638.183533,731.725891 636.272888,729.657959 636.133606,728.337524 
	C634.741150,715.138428 633.653625,701.907166 632.187744,688.606140 
	C631.458374,696.088257 630.767944,703.574463 629.987000,711.051086 
	C629.394958,716.719421 628.499207,722.363098 628.121155,728.043213 
	C627.962402,730.428101 627.306519,731.075134 624.981018,731.106995 
	C621.572388,731.153748 618.172974,731.881409 614.764648,731.924316 
	C612.576416,731.951782 611.224792,731.017456 610.882568,728.165588 
	C609.509583,716.725159 607.511902,705.360596 606.080078,693.926025 
	C604.821350,683.873779 604.077332,673.758179 602.974365,663.684937 
	C602.318604,657.696350 601.408264,651.735596 600.614624,645.779175 
	C601.458374,645.407593 601.881042,645.070068 602.317017,645.051758 
	C613.260681,644.591675 612.919922,644.633972 614.081787,655.480164 
	C615.762268,671.167725 618.040100,686.790649 619.948181,702.455200 
	C620.263672,705.045654 619.992554,707.707642 620.496582,710.343872 
	C620.996765,705.610779 621.598633,700.885681 621.975525,696.142822 
	C622.716614,686.815796 623.265564,677.473511 624.022644,668.147888 
	C624.578186,661.305664 625.211060,654.462463 626.146057,647.666016 
	C626.286133,646.647705 628.183716,645.308044 629.420410,645.120605 
	C632.016235,644.727173 634.713257,645.001160 637.872253,645.001160 
	C638.574158,649.989014 639.265381,654.901367 639.976562,660.279663 
z"/>
<path fill="#F7F3E8" opacity="1.000000" stroke="none" 
	d="
M550.273193,794.639282 
	C552.446716,802.772400 554.388672,810.546631 556.500244,819.000122 
	C556.500244,802.207458 556.500244,786.104736 556.500244,769.501465 
	C560.208252,769.501465 563.885193,769.501465 568.291626,769.501465 
	C568.291626,797.714600 568.291626,826.130859 568.291626,854.778320 
	C568.213135,854.795410 567.758057,854.976257 567.300598,854.982544 
	C555.819458,855.141785 555.851440,855.130310 553.028503,844.179016 
	C549.103394,828.951233 545.110352,813.740967 541.195068,798.510681 
	C540.881592,797.291077 540.945190,795.974609 539.812622,794.733887 
	C540.106323,799.254761 540.493225,803.772095 540.669495,808.297485 
	C540.875549,813.587219 540.835571,818.886108 541.014099,824.177307 
	C541.292053,832.417236 541.653503,840.654541 542.001953,848.891907 
	C542.140015,852.155518 541.786743,854.823486 537.507751,855.043762 
	C530.615845,855.398682 530.110657,855.173706 529.999512,849.956177 
	C529.667908,834.382568 529.243958,818.810242 529.029968,803.234985 
	C528.875793,792.014648 529.000000,780.790405 529.000000,769.002197 
	C532.819519,769.002197 537.427612,768.879333 542.018555,769.104980 
	C542.944702,769.150513 544.372925,770.372070 544.607788,771.295898 
	C546.547241,778.924805 548.260132,786.611389 550.273193,794.639282 
z"/>
<path fill="#F7F3E8" opacity="1.000000" stroke="none" 
	d="
M520.000000,796.724854 
	C520.332336,805.578979 520.943970,813.989014 520.924500,822.397461 
	C520.901550,832.307556 520.256836,842.214844 520.048950,852.126831 
	C519.992310,854.828491 519.203979,856.244568 516.323059,856.014526 
	C515.164673,855.922058 513.986145,855.918579 512.828247,856.014099 
	C508.593964,856.363525 506.876434,854.530762 506.943970,850.225952 
	C507.114227,839.370728 507.000397,828.511108 507.000397,817.325073 
	C504.118195,817.325073 500.380310,817.325073 495.999847,817.325073 
	C495.999847,826.228516 495.999939,835.315125 495.999725,844.401794 
	C495.999664,846.899841 496.064178,849.400024 495.980774,851.895325 
	C495.885468,854.746765 494.729156,856.465942 491.460541,856.036987 
	C489.823364,855.822021 487.938080,856.464661 486.524780,855.867676 
	C485.115906,855.272644 483.158966,853.621033 483.148499,852.417847 
	C482.948578,829.444214 483.000610,806.468445 483.001099,783.493103 
	C483.001160,780.172852 482.973877,776.852173 483.016144,773.532410 
	C483.050415,770.842285 483.663727,768.637634 487.136414,768.981934 
	C488.290802,769.096436 489.486664,769.141235 490.628143,768.974731 
	C494.840149,768.360474 496.072632,770.490356 496.030731,774.300354 
	C495.933716,783.125610 495.999908,791.952698 495.999939,800.779053 
	C495.999969,802.064270 495.999939,803.349487 495.999939,804.814209 
	C499.706787,804.814209 502.995209,804.814209 507.000244,804.814209 
	C507.000244,797.203247 507.000183,789.456604 507.000183,781.710022 
	C507.000183,780.211182 506.992645,778.712341 507.001434,777.213562 
	C507.054504,768.178833 505.824921,769.272583 515.308533,768.921387 
	C521.959961,768.675110 520.683167,773.811157 520.820068,777.071777 
	C521.088135,783.451782 520.332092,789.874817 520.000000,796.724854 
z"/>
<path fill="#F7F3E8" opacity="1.000000" stroke="none" 
	d="
M488.556091,652.912598 
	C493.076080,645.342712 502.572021,641.856689 511.040558,644.495483 
	C520.205444,647.351257 523.690674,651.804077 523.964050,661.867615 
	C524.427612,678.936157 524.916504,696.012329 524.817749,713.081909 
	C524.794128,717.164429 523.167053,721.637573 521.029968,725.178040 
	C519.399353,727.879517 516.041992,730.584412 513.026184,731.200745 
	C505.160675,732.808228 496.667542,733.854309 491.009064,726.223022 
	C488.778046,723.214111 487.254822,718.938782 487.174927,715.202332 
	C486.787750,697.089539 486.951385,678.963684 487.055817,660.843262 
	C487.070557,658.289185 487.833771,655.739380 488.556091,652.912598 
M511.860596,681.447083 
	C511.573792,675.881470 511.341003,670.312195 510.972168,664.752014 
	C510.834534,662.676758 510.135925,660.623962 510.124115,658.558411 
	C510.105042,655.213989 508.168915,654.710510 505.540527,655.012512 
	C502.914062,655.314270 500.073456,655.569153 500.022400,659.162659 
	C499.901947,667.647949 499.863525,676.134827 499.865906,684.621094 
	C499.868591,694.306030 499.918457,703.991211 500.013611,713.675720 
	C500.061279,718.524719 502.400818,721.239136 506.545044,720.947998 
	C510.847229,720.645813 512.158752,717.824890 512.033386,713.792358 
	C511.705627,703.246826 511.541992,692.696167 511.860596,681.447083 
z"/>
<path fill="#F7F3E8" opacity="1.000000" stroke="none" 
	d="
M613.999695,826.707214 
	C613.999817,831.954651 614.245117,836.751709 613.946350,841.514648 
	C613.406799,850.117554 606.956299,856.143555 598.424377,855.928040 
	C594.244507,855.822388 589.932617,855.476379 585.951111,854.312927 
	C580.478455,852.713989 577.860046,847.784973 577.190918,842.724182 
	C576.179443,835.074402 576.120361,827.270630 576.077148,819.529907 
	C576.044189,813.625366 576.788513,807.720642 576.957275,801.809448 
	C577.122620,796.016785 576.711182,790.198669 577.055908,784.421753 
	C577.947021,769.487061 586.989258,766.557556 599.590576,768.351135 
	C611.756348,770.082764 613.180054,778.086182 613.883362,787.842529 
	C614.455078,795.773743 613.999573,803.778992 613.999695,811.751404 
	C613.999756,816.581421 613.999695,821.411438 613.999695,826.707214 
M601.000244,821.477661 
	C601.000183,810.008179 601.096069,798.537537 600.965210,787.069580 
	C600.882568,779.826172 596.991699,776.716553 592.199585,780.164490 
	C590.398499,781.460327 589.133423,784.742676 589.142517,787.113586 
	C589.207886,803.988220 589.679810,820.861084 589.990601,837.735107 
	C590.073486,842.235291 592.280701,844.979675 595.976624,844.996765 
	C599.606384,845.013550 602.069824,842.223450 601.953613,837.665649 
	C601.824219,832.595032 601.333679,827.533630 601.000244,821.477661 
z"/>
<path fill="#F7F3E8" opacity="1.000000" stroke="none" 
	d="
M663.204468,849.692749 
	C661.958313,846.052734 660.234314,842.723755 660.134949,839.346985 
	C659.787292,827.536011 660.000305,815.708435 660.000183,803.887207 
	C660.000122,797.419312 659.703003,790.935059 660.059570,784.486877 
	C660.896545,769.348206 670.172180,766.585144 682.548767,768.340576 
	C694.722595,770.067261 696.250122,777.977661 696.868225,787.816101 
	C697.471802,797.422363 696.999573,807.096130 696.999634,816.740295 
	C696.999695,825.191406 697.391602,833.666382 696.879333,842.086304 
	C696.448242,849.171387 690.483765,856.394714 682.335388,855.928467 
	C677.525818,855.653259 672.688965,854.956116 668.005127,853.851746 
	C666.285461,853.446289 664.971008,851.322083 663.204468,849.692749 
M684.000122,813.499512 
	C684.000061,804.690125 684.103149,795.879211 683.967957,787.071899 
	C683.856689,779.828003 680.091431,776.835938 675.163025,780.118286 
	C673.587402,781.167603 672.335510,783.670349 672.139832,785.628418 
	C671.695801,790.071838 671.917847,794.591797 672.015198,799.077515 
	C672.305603,812.460449 672.637085,825.842773 673.016296,839.223450 
	C673.143188,843.698120 677.550110,845.987244 681.660828,844.049561 
	C685.785828,842.105042 685.050293,838.486511 684.956726,835.180725 
	C684.761475,828.283386 684.333008,821.392639 684.000122,813.499512 
z"/>
<path fill="#F7F3E8" opacity="1.000000" stroke="none" 
	d="
M721.850586,844.003906 
	C726.458923,845.106445 728.892090,843.115723 728.970764,838.189697 
	C729.085022,831.038025 729.000061,823.883118 729.000061,816.763367 
	C722.836975,815.204224 722.836975,815.204224 723.087219,804.009583 
	C728.463013,804.009583 733.890808,803.869263 739.297668,804.143188 
	C740.235229,804.190735 741.877136,806.010132 741.853638,806.978577 
	C741.544861,819.662354 741.831604,832.448242 740.214294,844.982056 
	C739.119141,853.469299 731.364929,856.510010 722.445496,856.223938 
	C713.055176,855.922852 708.008850,851.560425 705.608887,843.089905 
	C705.260010,841.858582 705.028137,840.546875 705.025574,839.271729 
	C704.988464,821.117249 704.985352,802.962769 705.007874,784.808228 
	C705.016418,777.889343 707.808472,772.210510 714.186951,769.476257 
	C720.686218,766.690186 727.870728,766.374023 733.871948,770.584961 
	C740.161682,774.998230 741.643066,781.989441 740.933411,789.390320 
	C740.853577,790.222961 740.083740,791.590088 739.495178,791.668518 
	C737.044861,791.995239 734.541870,791.952393 732.057373,791.991272 
	C728.300964,792.049988 729.203552,789.218018 728.942688,787.028137 
	C728.812134,785.931824 728.199646,784.898315 728.022522,783.801270 
	C727.464966,780.349182 725.117676,779.787231 722.198486,779.995667 
	C719.122131,780.215332 717.971497,781.933533 717.978577,784.903503 
	C718.021606,802.891296 717.906250,820.880493 718.150085,838.865112 
	C718.173523,840.590210 720.298767,842.286804 721.850586,844.003906 
z"/>
<path fill="#F7F3E8" opacity="1.000000" stroke="none" 
	d="
M555.064697,567.000549 
	C537.809021,562.703491 524.205505,553.046997 513.026978,540.269958 
	C503.824677,529.751709 497.641205,517.300049 495.031097,503.366058 
	C494.164124,498.737823 493.587982,494.049744 493.028107,489.371185 
	C492.662598,486.317322 493.786469,484.266541 497.227570,483.979431 
	C500.955719,483.668427 501.884338,486.391968 501.904083,488.947021 
	C501.983490,499.204895 504.996185,508.763916 509.181030,517.840088 
	C511.855560,523.640686 515.637573,529.092041 519.707825,534.056519 
	C530.477966,547.192749 544.298767,555.921509 560.967834,559.338623 
	C568.627136,560.908691 576.608276,560.908875 584.606445,561.635742 
	C583.644470,555.886475 582.503052,550.999207 582.089722,546.051025 
	C581.674133,541.076416 585.008789,539.165161 589.189636,541.788208 
	C596.832153,546.583191 604.446350,551.433838 611.898865,556.515686 
	C614.828796,558.513550 616.179993,560.688049 613.227356,564.647156 
	C607.956360,571.714844 603.833496,579.628723 598.878357,586.950378 
	C597.835815,588.490906 595.213135,589.834656 593.432251,589.705139 
	C592.184021,589.614441 590.612488,587.022278 590.086365,585.275818 
	C588.611267,580.379089 587.603210,575.341736 586.634033,571.291931 
	C576.121094,569.844482 565.804199,568.424011 555.064697,567.000549 
z"/>
<path fill="#F7F3E8" opacity="1.000000" stroke="none" 
	d="
M619.917542,305.000214 
	C632.962952,305.359314 644.229004,309.681274 655.217773,315.523560 
	C667.046936,321.812592 676.558044,330.503387 683.847107,341.498322 
	C691.667786,353.295197 696.862000,366.227448 698.027954,380.542023 
	C698.143250,381.957550 698.864258,383.330750 698.932556,384.741608 
	C699.072693,387.636475 698.701721,390.533783 695.045593,390.951050 
	C691.515625,391.353912 690.245483,389.452515 689.933044,385.950256 
	C687.529114,359.008759 675.498413,337.879150 651.822388,324.017303 
	C637.511963,315.638885 620.959900,311.772736 606.801025,313.433685 
	C607.726196,317.676758 608.963745,321.853027 609.435669,326.114075 
	C609.693054,328.437927 609.281921,331.410248 607.931152,333.094971 
	C607.257141,333.935638 603.483887,333.090851 601.647583,332.057587 
	C594.793518,328.200806 588.128113,324.003113 581.455872,319.831024 
	C576.313232,316.615356 575.755615,313.931213 579.014893,308.919434 
	C583.322205,302.295990 587.710754,295.724976 591.969849,289.070923 
	C593.555054,286.594391 595.486572,283.863342 598.457764,285.243896 
	C600.197998,286.052582 601.232910,289.071533 601.923218,291.301117 
	C603.292603,295.724365 604.203918,300.289459 605.354431,305.000183 
	C610.131287,305.000183 614.781433,305.000183 619.917542,305.000214 
z"/>
<path fill="#F7F3E8" opacity="1.000000" stroke="none" 
	d="
M478.998779,670.859314 
	C477.998596,677.882874 477.046661,684.460022 475.989410,691.020264 
	C474.027588,703.193542 472.002228,715.356567 470.012024,727.525269 
	C469.906921,728.167847 469.946106,729.377502 469.810150,729.393311 
	C464.659027,729.991028 459.484100,730.853027 454.341675,730.699158 
	C453.173615,730.664246 451.443970,727.164795 451.108643,725.077515 
	C448.587433,709.386292 446.280884,693.659363 444.049011,677.923462 
	C442.521973,667.156799 441.222931,656.357788 439.781769,645.263672 
	C443.956177,645.263672 447.711639,645.263672 451.892059,645.263672 
	C454.905914,667.102722 457.929138,689.009705 460.952362,710.916687 
	C461.161163,710.939880 461.369965,710.963074 461.578766,710.986267 
	C462.385864,705.326782 463.251373,699.674866 463.988159,694.006287 
	C465.683441,680.963135 467.329590,667.913574 468.953461,654.861389 
	C469.116852,653.548096 468.781464,652.155090 469.048767,650.876587 
	C469.461914,648.900513 469.953735,645.465332 470.836151,645.325500 
	C474.146820,644.801086 477.632477,645.328674 481.036438,645.638916 
	C481.171448,645.651184 481.261749,647.476746 481.170502,648.438171 
	C480.475189,655.763245 479.729523,663.083496 478.998779,670.859314 
z"/>
<path fill="#F7F3E8" opacity="1.000000" stroke="none" 
	d="
M825.250366,800.653809 
	C832.299866,811.043823 840.159607,820.581848 843.221680,832.731018 
	C844.714355,838.653198 843.957703,843.905457 839.898865,849.255432 
	C837.288574,852.696106 835.189514,855.799500 830.835449,855.918518 
	C824.866882,856.081726 818.764709,857.020874 813.552490,852.316956 
	C809.449158,848.613892 805.290405,837.914185 807.129395,833.026978 
	C807.472961,832.113953 808.978271,831.311646 810.076233,831.086426 
	C811.674072,830.758789 813.412720,831.181274 815.049133,830.964966 
	C819.127502,830.425720 820.258118,832.219971 820.079468,836.098389 
	C819.848511,841.112000 822.942383,844.902588 826.585693,844.838440 
	C830.665283,844.766663 833.775146,839.409668 831.516235,835.143738 
	C827.176697,826.948669 822.599243,818.829956 817.450928,811.127075 
	C812.558105,803.806396 808.476013,796.252502 807.061218,787.548645 
	C805.564148,778.338928 813.825073,769.257568 823.089966,768.925049 
	C831.297913,768.630432 838.634888,769.511108 842.044373,778.387756 
	C842.952515,780.752258 843.744446,783.285950 843.893127,785.783386 
	C844.049927,788.416992 845.395874,791.973633 840.187012,792.081604 
	C831.190308,792.268127 831.426147,792.403564 830.844910,786.683411 
	C830.615234,784.422729 828.989563,781.989563 827.307617,780.340820 
	C826.604980,779.652222 823.357727,780.227783 822.574890,781.239746 
	C821.099670,783.146912 819.414307,786.062439 819.890259,788.066101 
	C820.902161,792.325439 823.242981,796.269043 825.250366,800.653809 
z"/>
<path fill="#F7F3E8" opacity="1.000000" stroke="none" 
	d="
M716.432068,646.144043 
	C724.321289,650.279785 725.858948,657.292480 725.842102,664.862244 
	C725.839783,665.910095 723.882874,667.284546 722.550110,667.895508 
	C721.449463,668.400024 719.913269,667.848572 718.605896,668.027222 
	C714.348450,668.609131 712.637756,667.141968 712.809753,662.575500 
	C712.886597,660.536804 711.323059,657.927185 709.688599,656.531372 
	C708.765747,655.743225 705.412476,656.250061 704.526611,657.315186 
	C703.012329,659.135925 701.187927,662.497375 701.923889,664.085510 
	C705.464111,671.724426 709.896973,678.944336 713.859619,686.394470 
	C717.683960,693.584717 721.864990,700.657654 724.867249,708.189514 
	C727.236633,714.133911 726.209229,719.898865 721.684143,725.480652 
	C719.366638,728.339355 717.569946,731.528015 714.008606,731.789185 
	C709.337036,732.131775 704.269714,732.230164 699.922180,730.782715 
	C690.380127,727.606018 688.385803,716.499634 689.124512,709.697937 
	C689.231567,708.712097 690.772705,707.539490 691.901550,707.102356 
	C693.059875,706.653748 694.547607,707.153687 695.854492,706.973022 
	C700.478516,706.333862 702.405823,707.841431 702.221680,712.903137 
	C702.137878,715.206726 703.939575,718.266724 705.848572,719.714294 
	C707.131653,720.687256 711.372803,720.174988 712.046936,719.018860 
	C713.342529,716.797302 714.263977,713.000122 713.199341,710.991333 
	C708.259277,701.670593 702.242798,692.920776 697.293396,683.604431 
	C693.946533,677.304504 690.952454,670.601013 689.205261,663.721313 
	C686.954956,654.860718 695.756104,644.915222 704.873474,645.046631 
	C708.603210,645.100342 712.325500,645.667847 716.432068,646.144043 
z"/>
<path fill="#F7F3E8" opacity="1.000000" stroke="none" 
	d="
M451.999634,786.246521 
	C451.979370,800.990540 451.954590,815.296265 451.942383,829.601929 
	C451.939575,832.906860 451.996735,836.211792 451.995850,839.516724 
	C451.994690,843.822510 454.871033,844.038208 458.121643,844.031189 
	C461.845703,844.023071 462.481873,841.390381 462.966492,838.640320 
	C463.165771,837.509399 463.086578,836.306396 462.983246,835.149719 
	C462.724060,832.248413 463.734039,830.632507 466.900360,830.995300 
	C467.229187,831.032959 467.566101,831.003479 467.899200,830.999695 
	C476.711853,830.898804 477.632812,832.327576 475.443695,841.178467 
	C474.135773,846.466614 472.751038,851.431458 467.360931,854.130676 
	C461.101532,857.265320 454.570892,857.046753 448.439728,854.638611 
	C442.117584,852.155334 439.225159,846.291138 439.111755,839.844177 
	C438.792480,821.693787 438.360046,803.502441 439.254364,785.390564 
	C439.745880,775.436523 444.087921,768.786499 457.019135,768.960938 
	C470.140167,769.138000 476.667084,776.016052 476.057343,789.203857 
	C475.930084,791.956421 475.063690,793.222656 472.242340,793.020874 
	C470.585144,792.902344 468.900177,792.869629 467.249451,793.026733 
	C463.978333,793.338074 462.717316,791.996643 462.939636,788.713318 
	C463.068787,786.806274 463.210114,784.410706 462.223022,783.048950 
	C461.139587,781.554382 458.158356,779.762390 457.082550,780.291748 
	C454.990112,781.321472 453.650909,783.881775 451.999634,786.246521 
z"/>
<path fill="#F7F3E8" opacity="1.000000" stroke="none" 
	d="
M427.259338,815.339783 
	C423.125458,815.820251 419.343506,816.009216 415.281616,816.212158 
	C415.281616,824.950867 415.281616,833.681824 415.281616,843.000122 
	C420.131592,843.000122 425.066162,843.197205 429.976868,842.939026 
	C434.062012,842.724304 434.174072,845.104248 434.010132,848.020325 
	C433.851074,850.850586 435.015015,854.118774 429.945465,854.095398 
	C422.377319,854.060608 414.801514,854.587341 407.238556,855.036438 
	C403.932953,855.232666 402.975739,853.909180 402.930786,850.693726 
	C402.780609,839.953186 402.151123,829.218628 402.043396,818.478394 
	C401.880157,802.203857 402.000732,785.926392 402.000732,769.010254 
	C411.552979,769.010254 420.973755,768.720398 430.363220,769.136108 
	C434.861938,769.335327 432.521637,773.494995 432.947601,775.917114 
	C433.379669,778.373962 432.633453,780.118896 429.548615,780.032837 
	C424.909454,779.903381 420.264038,779.999023 415.311096,779.999023 
	C415.311096,787.901001 415.311096,795.631226 415.311096,804.000061 
	C418.235474,804.000061 421.338440,804.175354 424.412689,803.953369 
	C427.839050,803.705933 429.552338,804.896851 428.980286,808.454346 
	C428.624237,810.668396 428.074188,812.851379 427.259338,815.339783 
z"/>
<path fill="#F7F3E8" opacity="1.000000" stroke="none" 
	d="
M733.000000,668.998779 
	C733.000000,660.857178 733.000000,653.215271 733.000000,645.001892 
	C742.487427,645.001892 751.753357,644.896790 761.015198,645.047546 
	C765.437134,645.119446 763.751831,648.755981 763.945496,651.071777 
	C764.132751,653.311340 764.616028,656.029480 760.881042,656.005676 
	C756.081970,655.975159 751.282532,655.998291 746.244751,655.998291 
	C746.244751,664.049194 746.244751,671.785645 746.244751,680.000244 
	C749.589905,680.000244 752.875061,680.105042 756.150024,679.967834 
	C758.890259,679.853027 759.949280,680.862305 760.062378,683.702087 
	C760.380798,691.696594 760.209045,691.995544 752.130920,691.996521 
	C750.306702,691.996704 748.482483,691.996582 746.329346,691.996582 
	C746.329346,700.856750 746.329346,709.599243 746.329346,719.000061 
	C751.056824,719.000061 755.989624,719.200378 760.897583,718.937256 
	C764.906311,718.722412 765.235229,720.948853 765.008667,723.952759 
	C764.798767,726.735229 766.124878,730.103882 761.000488,730.091003 
	C753.420593,730.071899 745.834534,730.587769 738.260498,731.036194 
	C734.967651,731.231140 733.974670,729.942749 733.930237,726.705017 
	C733.780334,715.782104 733.240112,704.865173 733.030884,693.942444 
	C732.874878,685.797241 733.000061,677.646606 733.000000,668.998779 
z"/>
<path fill="#F7F3E8" opacity="1.000000" stroke="none" 
	d="
M772.000000,819.000671 
	C771.666687,803.747314 771.466309,788.988831 770.917053,774.243347 
	C770.757812,769.967590 772.182251,768.770996 776.319946,768.914368 
	C784.636292,769.202454 792.969666,769.000061 801.647827,769.000061 
	C801.647827,772.500488 801.647827,775.906738 801.647827,779.725525 
	C796.169922,779.725525 790.418518,779.725525 784.010925,779.725525 
	C784.010925,787.202637 783.906738,794.294922 784.140259,801.376038 
	C784.170105,802.279724 785.835876,803.570496 786.967163,803.889404 
	C788.511292,804.324768 790.269836,803.999878 791.936462,804.000061 
	C799.418823,804.000793 799.789856,804.157959 798.808777,811.444336 
	C798.582153,813.127258 796.157043,815.420105 794.395264,815.794861 
	C791.102539,816.495178 787.554749,815.996216 784.666931,815.996216 
	C784.666931,825.211731 784.666931,833.903076 784.666931,842.981995 
	C791.076233,842.981995 796.835999,842.981995 802.790161,842.981995 
	C802.790161,846.790100 802.790161,850.200012 802.790161,854.999878 
	C793.925781,854.999878 785.226685,854.861877 776.535767,855.067505 
	C773.036377,855.150330 771.869263,854.017883 771.933228,850.498596 
	C772.120728,840.168884 772.000000,829.833618 772.000000,819.000671 
z"/>
<path fill="#F7F3E8" opacity="1.000000" stroke="none" 
	d="
M574.000000,713.943115 
	C574.000000,694.432800 574.000000,675.412964 574.000000,656.569214 
	C569.502502,656.569214 565.635681,657.666504 563.412537,656.226440 
	C561.592773,655.047546 561.401978,650.868042 561.197327,647.968872 
	C561.133423,647.063171 563.360107,645.155029 564.565979,645.131531 
	C575.858032,644.911072 587.156189,645.000732 598.688782,645.000732 
	C598.813171,645.825317 598.986328,646.433472 598.984436,647.041077 
	C598.952209,657.397461 599.932434,656.203308 590.427734,655.921021 
	C584.633362,655.748901 587.028625,659.499573 587.023621,662.064209 
	C586.981628,683.695862 586.999756,705.327759 586.999695,726.959534 
	C586.999695,727.126038 587.071411,727.362122 586.988159,727.448486 
	C585.834900,728.643921 584.758972,730.712341 583.475037,730.854065 
	C575.034912,731.785706 574.973328,731.653564 574.351990,723.848755 
	C574.102966,720.720825 574.109619,717.572571 574.000000,713.943115 
z"/>
<path fill="#F7F3E8" opacity="1.000000" stroke="none" 
	d="
M636.000000,796.008423 
	C636.000000,812.137939 636.000000,827.769226 636.000000,844.003601 
	C640.612732,844.003601 645.048645,844.190491 649.462158,843.956055 
	C654.940430,843.665161 654.896973,847.080688 655.098450,851.055908 
	C655.306030,855.151489 653.769592,856.189575 649.899780,856.078979 
	C641.110291,855.828003 632.308777,855.999939 623.257202,855.999939 
	C623.257202,827.035095 623.257202,798.316711 623.257202,769.298828 
	C626.939087,769.298828 630.680237,769.298828 634.979553,769.298828 
	C635.316101,777.943481 635.658081,786.726868 636.000000,796.008423 
z"/>
<path fill="#F7F3E8" opacity="1.000000" stroke="none" 
	d="
M542.036621,732.000000 
	C538.893311,732.000000 536.245117,732.000000 533.299805,732.000000 
	C533.299805,703.120789 533.299805,674.401917 533.299805,645.341187 
	C536.997253,645.341187 540.870056,645.341187 545.437073,645.341187 
	C545.437073,670.036987 545.437073,694.678467 545.437073,720.003601 
	C550.688171,720.003601 555.273499,720.118652 559.850586,719.973328 
	C565.094727,719.806763 564.875916,723.238098 565.085510,726.943787 
	C565.308411,730.885742 564.039673,732.296326 560.009766,732.079773 
	C554.199097,731.767517 548.359192,732.000000 542.036621,732.000000 
z"/>
<path fill="#F7F3E8" opacity="1.000000" stroke="none" 
	d="
M384.284912,843.653870 
	C384.681702,846.241211 384.839661,848.497864 384.994781,850.754761 
	C385.006165,850.920593 385.036743,851.099976 384.990875,851.252869 
	C383.519958,856.157532 378.960205,853.684143 375.946411,854.864746 
	C373.625031,855.774048 371.893341,854.461426 371.962982,851.452881 
	C372.093781,845.798767 372.112335,840.136780 371.975677,834.482971 
	C371.728729,824.265930 371.087585,814.052734 371.080292,803.837585 
	C371.074768,796.129822 371.801056,788.421509 372.222809,780.305664 
	C367.846924,780.305664 363.768250,780.305664 360.028717,780.305664 
	C359.470337,779.676147 359.072266,779.437256 359.070221,779.194946 
	C358.963470,766.663940 357.987915,769.183350 368.858307,769.025940 
	C377.677795,768.898193 386.500580,769.000061 395.288513,769.000061 
	C397.622528,779.204712 397.270996,779.566528 384.005066,780.190186 
	C384.005066,781.749756 384.005188,783.345581 384.005035,784.941467 
	C384.003326,801.772461 383.999573,818.603394 384.001892,835.434387 
	C384.002228,838.064026 384.030212,840.693604 384.284912,843.653870 
z"/>
<path fill="#F7F3E8" opacity="1.000000" stroke="none" 
	d="
M762.999512,790.017334 
	C762.999451,799.343689 763.124939,808.175293 762.968567,817.001953 
	C762.760437,828.751709 762.248962,840.496216 762.054443,852.246094 
	C762.001343,855.449463 760.646545,856.239380 757.758057,855.968323 
	C755.444214,855.751099 753.093750,855.924377 749.884094,855.924377 
	C749.884094,827.140381 749.884094,798.350891 749.884094,769.757263 
	C750.459900,769.379395 750.716858,769.065369 750.984253,769.056213 
	C762.595459,768.655151 762.619690,768.657654 762.985596,780.025146 
	C763.087402,783.187073 763.000061,786.355103 762.999512,790.017334 
z"/>
<path fill="#F7F3E8" opacity="1.000000" stroke="none" 
	d="
M681.000000,722.026855 
	C681.000000,723.172241 681.000000,723.838257 681.000000,724.504333 
	C680.999756,732.065552 678.955750,733.775574 671.494141,731.834045 
	C670.396362,731.548523 669.104004,729.262695 669.107056,727.905029 
	C669.155640,706.322571 669.442566,684.740845 669.567993,663.158325 
	C669.594971,658.516785 669.302246,653.865417 668.965942,649.232483 
	C668.725159,645.914368 670.102844,644.597656 673.318909,644.997498 
	C673.482910,645.017822 673.651611,645.001953 673.818115,644.999695 
	C681.999878,644.888550 681.999939,644.888550 681.999939,652.859863 
	C681.999939,672.008911 682.052612,691.158203 681.954834,710.306763 
	C681.935669,714.055237 681.333374,717.800720 681.000000,722.026855 
z"/>
<path fill="#F7F3E8" opacity="1.000000" stroke="none" 
	d="
M476.223755,445.001129 
	C487.657501,445.001007 498.614044,445.001007 509.527374,445.001007 
	C510.538177,453.135895 507.989136,455.993805 500.035919,455.999084 
	C493.712158,456.003296 487.387268,456.075500 481.065033,455.977203 
	C475.508209,455.890839 471.957611,451.805878 473.109558,446.753326 
	C473.279572,446.007660 474.833130,445.577423 476.223755,445.001129 
z"/>
<path fill="#F7F3E8" opacity="1.000000" stroke="none" 
	d="
M499.970581,438.000000 
	C490.838501,438.000000 482.200958,438.000000 473.282867,438.000000 
	C473.282867,435.032501 473.282867,432.296082 473.282867,429.276062 
	C485.293915,429.276062 497.365051,429.276062 509.719055,429.276062 
	C509.719055,431.970337 509.719055,434.705200 509.719055,438.000000 
	C506.685028,438.000000 503.575073,438.000000 499.970581,438.000000 
z"/>
<path fill="#F7F3E8" opacity="1.000000" stroke="none" 
	d="
M706.294250,402.766602 
	C707.046570,405.039276 708.324219,407.259888 707.828613,408.965179 
	C705.826416,415.854828 703.440063,422.648712 700.841125,429.340302 
	C699.956055,431.618958 698.315369,434.125854 694.981934,432.475922 
	C692.039734,431.019623 691.477417,428.842194 692.623596,425.722382 
	C694.932495,419.437927 696.785034,412.984924 699.126282,406.713623 
	C700.219849,403.784393 702.066223,401.204559 706.294250,402.766602 
z"/>
<path fill="#F7F3E8" opacity="1.000000" stroke="none" 
	d="
M659.269653,547.341919 
	C657.999512,551.216003 657.478027,555.041626 655.717041,558.169250 
	C654.695801,559.982910 651.433533,561.937805 649.620361,561.582275 
	C646.710754,561.011719 646.414978,557.915344 647.418823,555.059143 
	C649.699219,548.570862 651.808350,542.020264 654.203430,535.575439 
	C655.150024,533.028137 656.609558,530.536011 660.134827,531.631287 
	C663.951294,532.817200 663.366150,535.437378 662.311707,538.314697 
	C661.265198,541.170166 660.427429,544.102112 659.269653,547.341919 
z"/>
<path fill="#F7F3E8" opacity="1.000000" stroke="none" 
	d="
M731.238159,497.000916 
	C739.116455,499.336182 746.613037,501.568573 754.023315,504.058167 
	C757.073975,505.083069 757.865723,507.854584 756.679077,510.501282 
	C755.570740,512.973267 753.524048,513.528687 750.539856,512.322449 
	C744.341003,509.816742 737.802307,508.156830 731.578003,505.705688 
	C729.751038,504.986237 727.870911,502.982849 727.275940,501.157074 
	C726.981323,500.253082 729.549072,498.416382 731.238159,497.000916 
z"/>
<path fill="#F7F3E8" opacity="1.000000" stroke="none" 
	d="
M606.376038,452.751404 
	C612.775085,454.982147 618.956787,456.703064 624.797485,459.216370 
	C626.385620,459.899719 627.974548,463.112701 627.728455,464.914001 
	C627.388000,467.405457 625.156189,468.327667 622.149658,467.118774 
	C615.646301,464.503906 609.025757,462.108063 602.299377,460.151123 
	C598.940735,459.173950 597.232178,457.785706 598.312561,454.351959 
	C599.358154,451.028687 601.820129,450.743530 604.706970,452.006500 
	C605.142517,452.196991 605.588989,452.362579 606.376038,452.751404 
z"/>
<path fill="#F7F3E8" opacity="1.000000" stroke="none" 
	d="
M698.000977,533.110474 
	C700.480469,527.947998 702.687927,527.246033 705.401794,531.121277 
	C708.406067,535.411072 710.761536,540.233521 712.763489,545.086304 
	C713.206360,546.159729 711.333679,549.084534 709.876404,549.766968 
	C708.673462,550.330322 705.598206,549.353760 704.930847,548.169922 
	C702.284302,543.474792 700.257324,538.430298 698.000977,533.110474 
z"/>
<path fill="#F7F3E8" opacity="1.000000" stroke="none" 
	d="
M725.587219,454.924805 
	C730.542175,452.122772 735.058838,449.237244 739.941284,447.250122 
	C741.356934,446.673920 744.675720,448.140228 745.595215,449.619324 
	C746.851868,451.640900 746.375061,454.187042 743.206421,455.448120 
	C739.480225,456.931122 736.094604,459.256134 732.393860,460.819855 
	C726.686340,463.231567 724.758301,461.598358 725.587219,454.924805 
z"/>
<path fill="#F7F3E8" opacity="1.000000" stroke="none" 
	d="
M625.970581,503.000122 
	C627.910583,503.989227 630.725403,505.028534 630.689148,505.956390 
	C630.621948,507.675537 629.278015,509.981415 627.771545,510.882965 
	C623.942139,513.174805 619.858826,515.261108 615.608215,516.526245 
	C613.830811,517.055176 611.372375,515.295776 609.223572,514.576843 
	C610.130371,512.720764 610.552368,510.020050 612.035767,509.168610 
	C616.314148,506.712921 621.020691,505.002930 625.970581,503.000122 
z"/>
<path fill="#F7F3E8" opacity="1.000000" stroke="none" 
	d="
M648.229492,431.608643 
	C646.688904,428.196045 645.448730,425.063416 643.982117,422.040771 
	C640.658081,415.190186 641.571411,413.816376 649.546509,414.171204 
	C651.624878,418.249634 653.756592,422.380402 655.838379,426.536163 
	C657.230347,429.314636 658.194885,432.240692 655.028259,434.400085 
	C651.918762,436.520508 650.295288,433.680023 648.229492,431.608643 
z"/>
<path fill="#000000" opacity="1.000000" stroke="none" 
	d="
M483.997681,382.208649 
	C483.233948,381.152191 482.506836,380.145416 481.704620,380.081543 
	C479.057770,379.870728 476.380554,380.083618 473.720886,379.980957 
	C469.564667,379.820587 468.367981,377.718597 469.991364,373.946960 
	C477.080017,357.477783 484.086121,340.973022 491.219269,324.523254 
	C491.965332,322.802734 493.352173,321.360077 494.324158,319.957977 
	C498.477783,320.697723 499.167297,323.026733 499.078247,326.463409 
	C498.845825,335.430054 499.000000,344.406708 499.000000,354.000000 
	C501.923492,354.000000 504.682648,353.967468 507.440796,354.006805 
	C513.106201,354.087585 514.968567,356.486633 512.837036,361.413757 
	C507.997894,372.599976 502.948273,383.694946 498.023926,394.844543 
	C495.240509,401.146759 492.535675,407.483673 489.853607,413.670776 
	C485.139679,414.938568 483.767700,413.137909 483.916443,408.657471 
	C484.203491,400.010315 484.000031,391.346863 483.997681,382.208649 
M491.999756,354.276245 
	C491.999756,350.365662 491.999756,346.455109 491.999756,342.544525 
	C491.732880,342.479950 491.466003,342.415375 491.199127,342.350800 
	C486.829742,352.446960 482.460358,362.543121 477.934967,372.999786 
	C480.358032,372.999786 482.019562,372.992798 483.681030,373.001038 
	C489.867157,373.031647 490.982849,374.172516 490.998383,380.505798 
	C491.008179,384.495270 491.000214,388.484802 491.000214,392.474304 
	C491.202606,392.550140 491.404999,392.625977 491.607391,392.701813 
	C496.044342,382.573273 500.481293,372.444702 504.983246,362.167694 
	C492.538574,361.608673 492.392212,361.527649 491.999756,354.276245 
z"/>
<path fill="#000000" opacity="1.000000" stroke="none" 
	d="
M511.586792,681.797363 
	C511.541992,692.696167 511.705627,703.246826 512.033386,713.792358 
	C512.158752,717.824890 510.847229,720.645813 506.545044,720.947998 
	C502.400818,721.239136 500.061279,718.524719 500.013611,713.675720 
	C499.918457,703.991211 499.868591,694.306030 499.865906,684.621094 
	C499.863525,676.134827 499.901947,667.647949 500.022400,659.162659 
	C500.073456,655.569153 502.914062,655.314270 505.540527,655.012512 
	C508.168915,654.710510 510.105042,655.213989 510.124115,658.558411 
	C510.135925,660.623962 510.834534,662.676758 510.972168,664.752014 
	C511.341003,670.312195 511.573792,675.881470 511.586792,681.797363 
z"/>
<path fill="#000000" opacity="1.000000" stroke="none" 
	d="
M601.000305,821.972900 
	C601.333679,827.533630 601.824219,832.595032 601.953613,837.665649 
	C602.069824,842.223450 599.606384,845.013550 595.976624,844.996765 
	C592.280701,844.979675 590.073486,842.235291 589.990601,837.735107 
	C589.679810,820.861084 589.207886,803.988220 589.142517,787.113586 
	C589.133423,784.742676 590.398499,781.460327 592.199585,780.164490 
	C596.991699,776.716553 600.882568,779.826172 600.965210,787.069580 
	C601.096069,798.537537 601.000183,810.008179 601.000305,821.972900 
z"/>
<path fill="#000000" opacity="1.000000" stroke="none" 
	d="
M684.000244,813.999329 
	C684.333008,821.392639 684.761475,828.283386 684.956726,835.180725 
	C685.050293,838.486511 685.785828,842.105042 681.660828,844.049561 
	C677.550110,845.987244 673.143188,843.698120 673.016296,839.223450 
	C672.637085,825.842773 672.305603,812.460449 672.015198,799.077515 
	C671.917847,794.591797 671.695801,790.071838 672.139832,785.628418 
	C672.335510,783.670349 673.587402,781.167603 675.163025,780.118286 
	C680.091431,776.835938 683.856689,779.828003 683.967957,787.071899 
	C684.103149,795.879211 684.000061,804.690125 684.000244,813.999329 
z"/>
<path fill="#F7F3E8" opacity="1.000000" stroke="none" 
	d="
M491.999786,354.741150 
	C492.392212,361.527649 492.538574,361.608673 504.983246,362.167694 
	C500.481293,372.444702 496.044342,382.573273 491.607391,392.701813 
	C491.404999,392.625977 491.202606,392.550140 491.000214,392.474304 
	C491.000214,388.484802 491.008179,384.495270 490.998383,380.505798 
	C490.982849,374.172516 489.867157,373.031647 483.681030,373.001038 
	C482.019562,372.992798 480.358032,372.999786 477.934967,372.999786 
	C482.460358,362.543121 486.829742,352.446960 491.199127,342.350800 
	C491.466003,342.415375 491.732880,342.479950 491.999756,342.544525 
	C491.999756,346.455109 491.999756,350.365662 491.999786,354.741150 
z"/>
</svg>